<svg id="Innovault_V1_WHITE_BACKGROUND.svg.svg" data-name="Innovault V1 WHITE BACKGROUND.svg.svg" xmlns="http://www.w3.org/2000/svg" xmlns:xlink="http://www.w3.org/1999/xlink" width="723.333" height="124" viewBox="0 0 723.333 124">
  <defs>
    <linearGradient id="linear-gradient" x1="-1.342" y1="-0.862" x2="3.016" y2="2.253" gradientUnits="objectBoundingBox">
      <stop offset="0" stop-color="#79008b"/>
      <stop offset="1" stop-color="#0080ff"/>
    </linearGradient>
    <linearGradient id="linear-gradient-2" x1="-0.862" y1="-2.008" x2="2.006" y2="3.114" xlink:href="#linear-gradient"/>
    <linearGradient id="linear-gradient-3" x1="-2.442" y1="-17.625" x2="4.421" y2="24.594" xlink:href="#linear-gradient"/>
    <linearGradient id="linear-gradient-4" x1="-8.535" y1="-19.531" x2="10.507" y2="22.688" xlink:href="#linear-gradient"/>
    <linearGradient id="linear-gradient-5" x1="-0.164" y1="-0.928" x2="2.028" y2="4.189" xlink:href="#linear-gradient"/>
    <linearGradient id="linear-gradient-6" x1="-0.181" y1="-1.285" x2="1.734" y2="3.527" xlink:href="#linear-gradient"/>
    <linearGradient id="linear-gradient-7" x1="-0.229" y1="0.092" x2="4.132" y2="3.205" xlink:href="#linear-gradient"/>
    <linearGradient id="linear-gradient-8" x1="-0.738" y1="-15.25" x2="2.576" y2="26.969" xlink:href="#linear-gradient"/>
    <linearGradient id="linear-gradient-9" x1="-0.404" y1="-2.39" x2="2.662" y2="7.544" xlink:href="#linear-gradient"/>
    <linearGradient id="linear-gradient-10" x1="-0.04" y1="-0.164" x2="3.307" y2="4.648" xlink:href="#linear-gradient"/>
    <linearGradient id="linear-gradient-11" x1="-0.727" y1="-0.917" x2="1.144" y2="1.243" xlink:href="#linear-gradient"/>
    <linearGradient id="linear-gradient-12" x1="-0.756" y1="-1.325" x2="1.767" y2="2.819" xlink:href="#linear-gradient"/>
  </defs>
  <g id="Group_1405" data-name="Group 1405" transform="translate(0 0)">
    <g id="Group_1403" data-name="Group 1403">
      <path id="Path_811" data-name="Path 811" d="M14.019,52.537V32.8a7.767,7.767,0,0,1,7.771-7.771H37.127V21.76H21.79A11,11,0,0,0,10.747,32.8V52.537A6.8,6.8,0,0,0,5.43,59.183a6.954,6.954,0,1,0,8.589-6.646Zm2.147,6.646a3.774,3.774,0,0,1-3.783,3.783A3.712,3.712,0,0,1,8.6,59.183,3.774,3.774,0,0,1,12.383,55.4,3.712,3.712,0,0,1,16.166,59.183Z" transform="translate(16.144 57.864)" fill="url(#linear-gradient)"/>
      <path id="Path_812" data-name="Path 812" d="M31.1,36.606V28.631a3.556,3.556,0,0,1,3.579-3.579H55.029V21.78H34.681a6.851,6.851,0,0,0-6.851,6.851v7.975a3.623,3.623,0,0,1-3.579,3.579H20.469a6.8,6.8,0,0,0-6.646-5.317,6.954,6.954,0,1,0,6.646,8.589h3.783A6.851,6.851,0,0,0,31.1,36.606ZM17.5,41.821A3.774,3.774,0,0,1,13.721,45.6a3.712,3.712,0,0,1-3.783-3.783,3.774,3.774,0,0,1,3.783-3.783A3.712,3.712,0,0,1,17.5,41.821Z" transform="translate(29.428 58.049)" fill="url(#linear-gradient-2)"/>
      <rect id="Rectangle_527" data-name="Rectangle 527" width="20.143" height="3.272" transform="translate(65.848 60.416)" fill="url(#linear-gradient-3)"/>
      <path id="Path_813" data-name="Path 813" d="M10.75,20.85h7.26v3.272H10.75" transform="translate(65.22 48.613)" fill="url(#linear-gradient-4)"/>
      <path id="Path_814" data-name="Path 814" d="M34.691,42.863H69.967V39.592H34.691a3.623,3.623,0,0,1-3.579-3.579V28.038a6.851,6.851,0,0,0-6.851-6.851H20.479a6.8,6.8,0,0,0-6.646-5.317,6.954,6.954,0,1,0,6.646,8.589h3.783a3.623,3.623,0,0,1,3.579,3.579v7.975A6.851,6.851,0,0,0,34.691,42.863ZM17.412,22.721A3.774,3.774,0,0,1,13.628,26.5a3.712,3.712,0,0,1-3.783-3.783,3.774,3.774,0,0,1,3.783-3.783A3.712,3.712,0,0,1,17.412,22.721Z" transform="translate(29.52 1.512)" fill="url(#linear-gradient-5)"/>
      <path id="Path_815" data-name="Path 815" d="M17.328,42.629a6.088,6.088,0,0,0-.613-2.761L33.483,26.474a10.275,10.275,0,0,1,6.544-2.352h35.48V20.85H40.027a13.4,13.4,0,0,0-8.589,3.067L14.67,37.312a6.869,6.869,0,0,0-4.4-1.636,6.953,6.953,0,1,0,6.953,6.953Zm-3.272,0a3.774,3.774,0,0,1-3.783,3.783A3.712,3.712,0,0,1,6.49,42.629a3.774,3.774,0,0,1,3.783-3.783A3.712,3.712,0,0,1,14.056,42.629Z" transform="translate(-3.32 48.93)" fill="url(#linear-gradient-6)"/>
      <path id="Path_816" data-name="Path 816" d="M14.019,47.5V27.769a6.8,6.8,0,0,0,5.317-6.646,6.953,6.953,0,1,0-13.906,0,6.49,6.49,0,0,0,5.317,6.646V47.5A11,11,0,0,0,21.79,58.546H37.127V55.274H21.79A7.767,7.767,0,0,1,14.019,47.5Zm-1.636-22.6a3.732,3.732,0,1,1,0-7.464,3.732,3.732,0,1,1,0,7.464Z" transform="translate(16.144 -14.17)" fill="url(#linear-gradient-7)"/>
      <rect id="Rectangle_528" data-name="Rectangle 528" width="41.717" height="3.272" transform="translate(49.079 50.849)" fill="url(#linear-gradient-8)"/>
      <path id="Path_817" data-name="Path 817" d="M4.86,26.413a6.891,6.891,0,0,0,13.6,1.636H49.951V24.777H18.459a6.8,6.8,0,0,0-6.646-5.317A6.96,6.96,0,0,0,4.86,26.413Zm3.272,0a3.689,3.689,0,0,1,3.783-3.681A3.689,3.689,0,0,1,15.7,26.413,3.774,3.774,0,0,1,11.915,30.2,3.712,3.712,0,0,1,8.132,26.413Z" transform="translate(10.886 35.639)" fill="url(#linear-gradient-9)"/>
      <path id="Path_818" data-name="Path 818" d="M3.32,23.533a6.96,6.96,0,0,0,6.953,6.953,7.239,7.239,0,0,0,4.4-1.636L31.438,42.244a14,14,0,0,0,8.589,3.067h4.6V42.04h-4.6a10.275,10.275,0,0,1-6.544-2.352L16.714,26.294a6.088,6.088,0,0,0,.613-2.761,6.953,6.953,0,0,0-13.906,0Zm3.272,0a3.774,3.774,0,0,1,3.783-3.783,3.712,3.712,0,0,1,3.783,3.783,3.774,3.774,0,0,1-3.783,3.783A3.712,3.712,0,0,1,6.592,23.533Z" transform="translate(-3.32 8.595)" fill="url(#linear-gradient-10)"/>
    </g>
    <g id="Group_1404" data-name="Group 1404" transform="translate(82.719 11.145)">
      <path id="Path_819" data-name="Path 819" d="M11.41,28.993V72.755A10.08,10.08,0,0,0,21.533,82.877H75.11A10.08,10.08,0,0,0,85.233,72.755V28.993A10.08,10.08,0,0,0,75.11,18.87H21.533A10.08,10.08,0,0,0,11.41,28.993ZM44.436,48.931a6.844,6.844,0,1,1,10.736-5.624,6.661,6.661,0,0,1-2.965,5.624l1.738,14.11a2.4,2.4,0,0,1-.511,1.636,2.175,2.175,0,0,1-1.534.716H44.538A1.84,1.84,0,0,1,43,64.677a1.886,1.886,0,0,1-.511-1.636l1.738-14.11Z" transform="translate(-11.41 20.06)" fill="url(#linear-gradient-11)"/>
      <path id="Path_820" data-name="Path 820" d="M56.571,42.662a16.769,16.769,0,0,0-33.537,0v5.93H12.4v-5.93a27.4,27.4,0,1,1,54.8,0v5.93H56.571v-5.93Z" transform="translate(-2.277 -15.26)" fill="url(#linear-gradient-12)"/>
    </g>
  </g>
  <g id="Group_1406" data-name="Group 1406" transform="translate(183.464 10.02)">
    <path id="Path_821" data-name="Path 821" d="M26.745,15.45a5.215,5.215,0,1,0,5.215,5.215A5.237,5.237,0,0,0,26.745,15.45Z" transform="translate(-18.463 -12.383)" fill="none"/>
    <path id="Path_822" data-name="Path 822" d="M64.439,18.81C51.146,18.81,38.57,27.5,38.57,46.621S51.044,74.535,64.337,74.535,90.41,65.844,90.41,46.621,77.731,18.81,64.439,18.81Z" transform="translate(138.728 20.631)" fill="none"/>
    <path id="Path_823" data-name="Path 823" d="M75.594,19.18C63.938,19.18,54.02,27.667,54.02,42.7s9.918,23.926,21.574,23.926S97.271,57.932,97.271,42.9,87.251,19.282,75.594,19.282Z" transform="translate(281.251 24.044)" fill="none"/>
    <path id="Path_824" data-name="Path 824" d="M52.707,18.32c-10.532,0-19.529,4.908-23.313,14.724V19.649H24.18V82.838h5.215V48.688c0-17.587,9.3-25.869,22.495-25.869s21.165,7.975,21.165,23.313V82.838h5.112V45.825c0-19.018-11.452-27.5-25.562-27.5Z" transform="translate(5.983 16.111)"/>
    <path id="Path_825" data-name="Path 825" d="M59.8,18.32c-10.532,0-19.529,4.908-23.313,14.724V19.649H31.27V82.838h5.215V48.688c0-17.587,9.3-25.869,22.495-25.869s21.165,7.975,21.165,23.313V82.838h5.112V45.825c0-19.018-11.452-27.5-25.562-27.5Z" transform="translate(71.387 16.111)"/>
    <path id="Path_826" data-name="Path 826" d="M69.338,18.36c-17.689,0-31.288,12.27-31.288,32.413S51.444,83.39,69.133,83.39s31.288-12.372,31.288-32.617S87.027,18.36,69.338,18.36Zm-.2,60.326c-13.292,0-25.767-8.691-25.767-27.914S55.943,22.961,69.236,22.961s25.971,8.691,25.971,27.811S82.426,78.686,69.133,78.686Z" transform="translate(133.931 16.48)"/>
    <path id="Path_827" data-name="Path 827" d="M81.839,86.628,56.277,16.69H45.03L75.6,97.875h12.27L118.444,16.69H107.3Z" transform="translate(198.32 1.074)"/>
    <path id="Path_828" data-name="Path 828" d="M106.957,30.959C103.276,24.313,95.1,18.28,83.235,18.28,66.058,18.28,52.97,31.061,52.97,51S66.16,84.23,83.133,84.23c11.759,0,20.041-6.033,23.926-12.883V83.207H117.8V19.4H107.059V31.061ZM85.28,74.823c-11.656,0-21.574-8.9-21.574-23.926S73.624,27.38,85.28,27.38s21.677,8.9,21.677,23.619S96.937,74.721,85.28,74.721Z" transform="translate(271.565 15.742)"/>
    <path id="Path_829" data-name="Path 829" d="M107.615,53.451c0,13.7-7.362,20.45-18.3,20.45S71.522,67.255,71.522,54.371V18.38H60.99V55.8c0,18.3,11.554,27.4,26.176,27.4,8.487,0,16.36-3.783,20.347-10.327v9.407h10.634v-63.8H107.513V53.553Z" transform="translate(345.548 16.664)"/>
    <rect id="Rectangle_529" data-name="Rectangle 529" width="10.634" height="88.213" transform="translate(481.69 10.736)"/>
    <path id="Path_830" data-name="Path 830" d="M106.132,41.564V32.873H89.466V16.82H78.832V32.873H70.55v8.691h8.282V79.191c0,12.781,6.442,17.484,17.689,17.484h9.509v-9H98.259c-6.544,0-8.9-2.249-8.9-8.487V41.564h16.769Z" transform="translate(433.737 2.274)"/>
    <path id="Path_831" data-name="Path 831" d="M29.512,15.15a8.415,8.415,0,0,0-2.556,16.388V114h5.215V31.538A8.415,8.415,0,0,0,29.614,15.15Zm0,13.882a5.324,5.324,0,1,1,5.215-5.323A5.292,5.292,0,0,1,29.512,29.032Z" transform="translate(-21.23 -15.15)"/>
  </g>
</svg>
